<?xml version="1.0" encoding="UTF-8" standalone="no"?>
<!-- Created with Inkscape (http://www.inkscape.org/) -->

<svg
   xmlns:dc="http://purl.org/dc/elements/1.1/"
   xmlns:cc="http://creativecommons.org/ns#"
   xmlns:rdf="http://www.w3.org/1999/02/22-rdf-syntax-ns#"
   xmlns:svg="http://www.w3.org/2000/svg"
   xmlns="http://www.w3.org/2000/svg"
   xmlns:sodipodi="http://sodipodi.sourceforge.net/DTD/sodipodi-0.dtd"
   xmlns:inkscape="http://www.inkscape.org/namespaces/inkscape"
   id="svg2"
   version="1.1"
   inkscape:version="0.48.5 r10040"
   width="778.6625"
   height="180.4"
   xml:space="preserve"
   sodipodi:docname="NESTA_LOGO_RGB.eps"><metadata
     id="metadata8"><rdf:RDF><cc:Work
         rdf:about=""><dc:format>image/svg+xml</dc:format><dc:type
           rdf:resource="http://purl.org/dc/dcmitype/StillImage" /><dc:title></dc:title></cc:Work></rdf:RDF></metadata><defs
     id="defs6" /><sodipodi:namedview
     pagecolor="#ffffff"
     bordercolor="#666666"
     borderopacity="1"
     objecttolerance="10"
     gridtolerance="10"
     guidetolerance="10"
     inkscape:pageopacity="0"
     inkscape:pageshadow="2"
     inkscape:window-width="640"
     inkscape:window-height="480"
     id="namedview4"
     showgrid="false"
     inkscape:zoom="0.46361551"
     inkscape:cx="389.33124"
     inkscape:cy="90.199997"
     inkscape:window-x="0"
     inkscape:window-y="24"
     inkscape:window-maximized="0"
     inkscape:current-layer="g10" /><g
     id="g10"
     inkscape:groupmode="layer"
     inkscape:label="ink_ext_XXXXXX"
     transform="matrix(1.25,0,0,-1.25,0,180.4)"><g
       id="g12"
       transform="scale(0.1,0.1)"><path
         d="m 242.309,1131.45 0,-1107.8484 -242.309,0 0,1419.5584 300.23,0 600.415,-1040.801 0,1040.801 244.465,0 0,-1419.5584 -272.321,0 -630.48,1107.8484"
         style="fill:#211d1d;fill-opacity:1;fill-rule:nonzero;stroke:none"
         id="path14" /><path
         d="m 2000.18,656.18 c 2.15,96.511 -40.73,255.203 -216.57,255.203 -162.98,0 -231.6,-147.981 -242.34,-255.203 l 458.91,0 z M 1541.27,471.773 c 6.45,-188.714 154.41,-270.214 321.66,-270.214 122.25,0 210.18,17.171 289.5,47.179 L 2191.04,66.4688 C 2100.98,30.0195 1976.59,0 1826.5,0 c -338.83,0 -538.25,210.141 -538.25,529.664 0,289.5 175.84,561.846 510.37,561.846 340.96,0 450.32,-278.772 450.32,-508.225 0,-49.312 -4.29,-87.945 -8.58,-111.512 l -699.09,0"
         style="fill:#211d1d;fill-opacity:1;fill-rule:nonzero;stroke:none"
         id="path16" /><path
         d="m 2395.24,265.898 c 60.05,-36.457 173.7,-75.046 268.06,-75.046 115.79,0 167.25,47.168 167.25,115.828 0,70.742 -42.88,107.191 -171.54,152.242 -203.72,70.742 -289.49,182.258 -287.36,304.48 0,184.446 152.24,328.108 394.59,328.108 115.78,0 216.56,-30.01 276.61,-62.2 l -51.47,-186.56 c -45.02,25.73 -128.66,60.051 -220.88,60.051 -94.33,0 -145.8,-45.031 -145.8,-109.375 0,-66.469 49.32,-98.617 182.27,-145.793 C 2995.68,578.98 3083.6,482.484 3085.75,328.102 3085.75,139.391 2937.78,0 2661.14,0 2534.64,0 2420.98,32.1797 2343.76,75.0391 l 51.48,190.8589"
         style="fill:#211d1d;fill-opacity:1;fill-rule:nonzero;stroke:none"
         id="path18" /><path
         d="m 3572.57,1335.98 0,-268.07 250.92,0 0,-197.277 -250.92,0 0,-461.063 c 0,-126.511 34.33,-192.98 135.09,-192.98 49.34,0 72.92,4.269 102.95,12.851 L 3814.9,27.8789 C 3776.31,12.8906 3707.66,0 3624.06,0 c -96.54,0 -178,34.3203 -227.31,87.9492 -55.74,60.0198 -81.51,154.3788 -81.51,291.6098 l 0,491.074 -150.09,0 0,197.277 150.09,0 0,193.02 257.33,75.05"
         style="fill:#211d1d;fill-opacity:1;fill-rule:nonzero;stroke:none"
         id="path20" /><path
         d="m 4541.34,533.973 c -186.58,4.273 -364.52,-36.457 -364.52,-195.153 0,-102.941 66.45,-150.109 150.11,-150.109 105.06,0 182.26,68.609 205.81,143.66 6.46,19.301 8.6,40.77 8.6,57.899 l 0,143.703 z M 4798.65,274.48 c 0,-94.359 4.31,-186.5308 15.04,-250.8784 l -238.04,0 -17.14,115.7894 -6.45,0 C 4487.71,57.8984 4378.37,0 4243.27,0 c -210.16,0 -328.1,152.238 -328.1,310.941 0,263.774 233.77,396.719 619.72,394.582 l 0,17.118 c 0,68.644 -27.83,182.304 -212.28,182.304 -102.93,0 -210.14,-32.156 -280.92,-77.195 l -51.47,171.543 c 77.19,47.187 212.3,92.217 377.44,92.217 334.5,0 430.99,-212.295 430.99,-439.612 l 0,-377.418"
         style="fill:#211d1d;fill-opacity:1;fill-rule:nonzero;stroke:none"
         id="path22" /><path
         d="m 5109.02,0 c -92.2,0 -160.83,72.9219 -158.7,169.41 0,98.621 66.5,169.41 162.97,169.41 96.5,0 160.84,-68.609 162.97,-169.41 C 5276.26,72.9219 5209.79,0 5111.15,0 l -2.13,0"
         style="fill:#598ed2;fill-opacity:1;fill-rule:nonzero;stroke:none"
         id="path24" /><path
         d="m 5585.52,0 c -92.23,0 -160.84,72.9219 -158.69,169.41 0,98.621 66.46,169.41 163,169.41 96.49,0 160.82,-68.609 162.97,-169.41 C 5752.8,72.9219 5686.32,0 5587.67,0 l -2.15,0"
         style="fill:#99bfe8;fill-opacity:1;fill-rule:nonzero;stroke:none"
         id="path26" /><path
         d="m 6062.06,0 c -92.23,0 -160.84,72.9219 -158.69,169.41 0,98.621 66.46,169.41 162.97,169.41 96.47,0 160.82,-68.609 162.95,-169.41 C 6229.29,72.9219 6162.81,0 6064.19,0 l -2.13,0"
         style="fill:#dfedf9;fill-opacity:1;fill-rule:nonzero;stroke:none"
         id="path28" /></g></g></svg>